<?xml version="1.0" encoding="iso-8859-1"?>
<!-- Generator: Adobe Illustrator 19.0.0, SVG Export Plug-In . SVG Version: 6.00 Build 0)  -->
<svg version="1.1" id="Capa_1" xmlns="http://www.w3.org/2000/svg" xmlns:xlink="http://www.w3.org/1999/xlink" x="0px" y="0px"
	 viewBox="0 0 512 512" style="enable-background:new 0 0 512 512;" xml:space="preserve">
<path style="fill:#B6B0A2;" d="M52.144,399.493L1.632,492.774c-6.146,11.352,6.244,23.741,17.594,17.594l93.281-50.512
	L52.144,399.493z"/>
<circle style="fill:#E9E3D5;" cx="256" cy="256" r="256"/>
<path style="fill:#B6B0A2;" d="M408.052,50.043c31.442,42.519,50.043,95.11,50.043,152.052c0,141.385-114.615,256-256,256
	c-56.941,0-109.533-18.601-152.052-50.043C96.672,471.107,171.556,512,256,512c141.385,0,256-114.615,256-256
	C512,171.556,471.107,96.672,408.052,50.043z"/>
<path style="fill:#3E4954;" d="M257.687,350.864c-12.801,0-23.179-10.377-23.179-23.179v-30.478
	c0-28.998,17.673-54.53,45.025-65.043c24.962-9.594,40.616-34.036,38.953-60.823c-1.865-30.026-26.843-55.007-56.869-56.869
	c-17.052-1.066-33.265,4.763-45.64,16.394c-12.389,11.644-19.212,27.414-19.212,44.405c0,12.802-10.378,23.179-23.179,23.179
	s-23.179-10.377-23.179-23.179c0-29.487,12.327-57.984,33.821-78.185c21.798-20.486,50.3-30.735,80.261-28.884
	c25.9,1.608,50.393,12.724,68.969,31.298c18.575,18.574,29.69,43.069,31.297,68.969c2.924,47.09-24.64,90.077-68.59,106.967
	c-9.292,3.573-15.298,12.118-15.298,21.771v30.478C280.866,340.487,270.488,350.864,257.687,350.864z"/>
<path style="fill:#596775;" d="M234.964,425.361c-2.539-12.193,5.514-24.781,18.193-27.259c21.257-4.41,36.168,20.786,22.448,37.426
	C263.521,450.511,238.769,444.642,234.964,425.361z"/>
<path style="fill:#3E4954;" d="M234.964,425.361c-2.539-12.193,5.514-24.781,18.193-27.259c21.257-4.41,36.168,20.786,22.448,37.426
	C263.521,450.511,238.769,444.642,234.964,425.361z"/>
<g>
</g>
<g>
</g>
<g>
</g>
<g>
</g>
<g>
</g>
<g>
</g>
<g>
</g>
<g>
</g>
<g>
</g>
<g>
</g>
<g>
</g>
<g>
</g>
<g>
</g>
<g>
</g>
<g>
</g>
</svg>
