<svg id="Capa_1" enable-background="new 0 0 497 497" height="512" viewBox="0 0 497 497" width="512" xmlns="http://www.w3.org/2000/svg"><g><g><g><path d="m231.861 180.973c5.948-16.424-5.811-34.337-22.025-36.432-6.989-.813-13.408-6.574-14.145-14.779-1.318-17.014-20.197-28.95-35.936-23.096-6.971 2.556-15.119.111-19.444-6.518-9.425-14.586-32.411-15.518-42.902-2.145-4.977 6.513-13.265 7.759-21.361 6.537-16.446-2.599-31.79 13.136-23.872 28.32 2.287 4.483 6.228 7.956 10.485 10.014 7.527 3.667 13.93 9.138 13.502 17.58-.435 9.032 3.185 18.099 10.03 24.366 9.417 8.339 15.541 6.316 19.667 10.692h127.94c-2.909-4.118-3.78-9.481-1.939-14.539z" fill="#b3e59f"/><path d="m231.861 180.973c5.948-16.424-5.811-34.337-22.025-36.432-6.989-.813-13.408-6.574-14.145-14.779-1.318-17.014-20.197-28.95-35.936-23.096-6.971 2.556-15.119.111-19.444-6.518-6.023-9.321-17.582-13.056-27.882-11.055-3.458 8.743-2.772 18.971 2.755 27.446 4.465 6.846 10.431 12.176 17.221 15.772 9.457 5.01 15.559 14.635 15.559 25.337v37.865h57.663 28.174c-2.91-4.119-3.781-9.482-1.94-14.54z" fill="#78c2a4"/></g><g><path d="m297.715 88.452c0-49.09-53.555-74.898-85.982-41.125-24.031 25.028-39.018 60.434-39.018 99.686 0 20.018 3.906 39.031 10.914 56.183-5.965 14.598-9.672 30.549-10.646 47.317h124.733v-162.061z" fill="#ffb545"/><g fill="#ff7e40"><path d="m297.715 88.452c0-32.13-22.943-54.283-47.887-56.288 8.399 9.729 13.797 22.957 13.797 38.534v179.814h34.091v-162.06z"/><path d="m181.405 197.396c-.022-.06-.044-.121-.065-.182-2.547-7.124-4.569-14.539-6.012-22.186-.553-2.93.105-5.981 1.801-8.323 3.654-5.044 7.623-9.8 11.877-14.23 10.959-11.414 24.332-16.022 37.234-15.225 5.605.346 6.839 8.689 1.628 10.982-5.695 2.506-11.163 6.281-16.135 11.459-11.771 12.26-21.365 27.015-28.098 43.487-.779-1.906-1.529-3.83-2.23-5.782z"/></g></g><g><circle cx="144.965" cy="216.512" fill="#ff7e40" r="58"/><g fill="#f05434"><path d="m170.753 164.561c3.865 7.77 6.049 16.522 6.049 25.788 0 32.033-25.967 58-58 58-9.266 0-18.019-2.184-25.788-6.049 9.494 19.088 29.185 32.212 51.951 32.212 32.032 0 58-25.968 58-58 0-22.766-13.124-42.457-32.212-51.951z"/><circle cx="115.465" cy="192.012" r="7.5"/><circle cx="137.465" cy="181.012" r="7.5"/><circle cx="159.465" cy="192.012" r="7.5"/></g></g><g><path d="m413.219 147.01v-22.973h-52.5v22.975c0 13.699-5.316 26.997-15.216 36.465-11.42 10.922-18.533 26.308-18.533 43.358v32.203h120v-32.203c0-17.05-7.114-32.437-18.534-43.359-9.901-9.469-15.217-22.766-15.217-36.466z" fill="#9dc6fb"/><path d="m440.133 199.038c-2.965-5.657-6.792-10.791-11.328-15.205-9.796-9.533-15.586-22.438-15.586-36.107v-23.688h-30v22.974c0 10.873 2.167 21.53 6.225 31.325 4.086 9.861-3.191 20.702-13.865 20.702h-41.773c-4.356 8.312-6.836 17.762-6.836 27.797v32.203h120v-32.203c0-10.036-2.48-19.486-6.837-27.798z" fill="#80b4fb"/><path d="m413.219 139.037h-52.5c-8.284 0-15-6.716-15-15s6.716-15 15-15h52.5c8.284 0 15 6.716 15 15s-6.716 15-15 15z" fill="#e9e3d5"/></g></g><g><path d="m470.823 214.988h-444.646c-14.457 0-26.177 11.753-26.177 26.25 0 14.497 11.72 26.25 26.177 26.25h8.759l28.68 172.422c2.407 14.471 14.925 25.078 29.593 25.078h315.872c14.669 0 27.187-10.607 29.594-25.078l28.679-172.422h3.469c14.457 0 26.177-11.753 26.177-26.25 0-14.497-11.72-26.25-26.177-26.25z" fill="#5c87bd"/><g fill="#456ea2"><path d="m496.981 242.004c-.405 14.143-11.957 25.484-26.158 25.484h-3.469l-28.679 172.422c-2.407 14.471-14.925 25.078-29.594 25.078h-315.872c-14.669 0-27.187-10.607-29.593-25.078l-.819-4.922h346.284l29.312-167.5h-412.216c-14.457 0-26.177-11.753-26.177-26.25 0-1.273.095-2.524.27-3.75h444.23c12.426 0 22.5-10.073 22.5-22.5h3.823c14.457 0 26.177 11.753 26.177 26.25s0 0-.019.766z"/><path d="m437.5 303.093h-11.313l.834-4.401c.771-4.07-1.902-7.994-5.972-8.767-4.066-.766-7.994 1.901-8.767 5.972l-1.365 7.196h-32.627l.649-4.792c.556-4.104-2.321-7.883-6.426-8.439-4.104-.554-7.884 2.32-8.438 6.426l-.922 6.806h-32.738l.422-5.191c.335-4.129-2.739-7.747-6.868-8.083-4.146-.331-7.747 2.74-8.083 6.868l-.521 6.406h-32.803l.152-5.596c.112-4.141-3.153-7.588-7.294-7.7-4.129-.099-7.588 3.153-7.7 7.294l-.163 6.002h-32.825l-.163-6.002c-.112-4.141-3.524-7.396-7.7-7.294-4.141.112-7.406 3.56-7.294 7.7l.152 5.596h-32.803l-.521-6.406c-.336-4.128-3.937-7.201-8.083-6.868-4.129.336-7.203 3.954-6.868 8.083l.422 5.191h-32.738l-.922-6.806c-.555-4.104-4.339-6.975-8.438-6.426-4.104.557-6.981 4.335-6.426 8.439l.649 4.792h-32.627l-1.365-7.196c-.772-4.069-4.701-6.732-8.767-5.972-4.069.772-6.743 4.696-5.972 8.767l.834 4.401h-11.602c-4.143 0-7.5 3.357-7.5 7.5s3.357 7.5 7.5 7.5h14.448l19.316 101.868c.683 3.598 3.828 6.104 7.36 6.104.464 0 .935-.043 1.406-.132 4.069-.772 6.743-4.696 5.972-8.767l-2.404-12.679h27.135l2.043 15.083c.509 3.763 3.728 6.494 7.422 6.494.336 0 .675-.022 1.017-.068 4.104-.557 6.981-4.335 6.426-8.439l-1.77-13.069h27.243l1.193 14.684c.319 3.922 3.601 6.893 7.468 6.893.203 0 .408-.008.615-.024 4.129-.336 7.203-3.954 6.868-8.083l-1.094-13.469h27.31l.387 14.279c.11 4.071 3.445 7.297 7.493 7.297.068 0 .138-.001.207-.003 4.141-.112 7.406-3.56 7.294-7.7l-.376-13.873h27.332l-.376 13.873c-.112 4.141 3.153 7.588 7.294 7.7.069.002.138.003.207.003 4.048 0 7.383-3.226 7.493-7.297l.387-14.279h27.31l-1.094 13.469c-.335 4.129 2.739 7.747 6.868 8.083.207.017.412.024.615.024 3.867 0 7.148-2.971 7.468-6.893l1.193-14.684h27.243l-1.77 13.069c-.556 4.104 2.321 7.883 6.426 8.439.342.046.681.068 1.017.068 3.694 0 6.913-2.731 7.422-6.494l2.043-15.083h27.135l-2.404 12.679c-.771 4.07 1.902 7.994 5.972 8.767.473.089.942.132 1.406.132 3.531 0 6.678-2.506 7.36-6.104l19.316-101.868h14.158c4.143 0 7.5-3.357 7.5-7.5s-3.358-7.5-7.5-7.5zm-76.377 15-3.807 28.105h-30.402l2.284-28.105zm-46.976 0-2.284 28.105h-30.468l.761-28.105zm-46.995 0-.761 28.105h-30.49l-.761-28.105zm-47.018 0 .761 28.105h-30.468l-2.284-28.105zm-47.04 0 2.284 28.105h-30.402l-3.807-28.105zm-47.063 0 3.807 28.105h-30.292l-5.329-28.105zm-18.277 71.395-5.364-28.289h29.48l3.832 28.289zm43.085 0-3.832-28.289h29.589l2.299 28.289zm43.106 0-2.299-28.289h29.655l.766 28.289zm43.128 0-.766-28.289h29.677l-.766 28.289zm43.15 0 .766-28.289h29.655l-2.299 28.289zm43.173 0 2.299-28.289h29.589l-3.832 28.289zm43.193 0 3.832-28.289h29.48l-5.364 28.289zm36.156-43.289h-30.293l3.807-28.105h31.815z"/></g></g><g><path d="m482 454.987c-3.839 0-7.678-1.465-10.606-4.394l-196-196c-5.858-5.857-5.858-15.355 0-21.213 5.857-5.857 15.355-5.857 21.213 0l196 196c5.858 5.857 5.858 15.355 0 21.213-2.93 2.929-6.768 4.394-10.607 4.394z" fill="#d3cdbf"/><path d="m15 454.987c3.839 0 7.678-1.465 10.606-4.394l196-196c5.858-5.857 5.858-15.355 0-21.213-5.857-5.857-15.355-5.857-21.213 0l-196 196c-5.858 5.857-5.858 15.355 0 21.213 2.93 2.929 6.768 4.394 10.607 4.394z" fill="#e9e3d5"/></g></g></svg>