<svg id="Capa_1" enable-background="new 0 0 497 497" height="512" viewBox="0 0 497 497" width="512" xmlns="http://www.w3.org/2000/svg"><g><path d="m121 317c-58.448 0-106-47.551-106-106h15c0 50.178 40.822 91 91 91s91-40.822 91-91h15c0 58.449-47.552 106-106 106z" fill="#62676f"/><circle cx="429.5" cy="248.5" fill="#83878c" r="67.5"/><path d="m30 67.5c0-16.569 13.431-30 30-30h21.734v-30h-21.734c-33.137 0-60 26.863-60 60v136l15 15 15-15z" fill="#c2c4c6"/><path d="m242 67.5c0-33.137-26.863-60-60-60h-21.734v30h21.734c16.569 0 30 13.431 30 30v136l15 15 15-15z" fill="#c2c4c6"/><path d="m414.5 248.5h30v-97.5l-15-30-15 30z" fill="#a4a6aa"/><path d="m414.5 151h30v-30l-15-30-15 30z" fill="#202833"/><path d="m365.75 0c-43.423 0-78.75 35.327-78.75 78.75v312.75c0 41.631-33.869 75.5-75.5 75.5s-75.5-33.869-75.5-75.5v-22.925c59.748-7.388 106-58.328 106-120.075v-45h-30v45c0 50.258-40.742 91-91 91s-91-40.742-91-91v-45h-30v45c0 61.747 46.252 112.687 106 120.075v22.925c0 58.173 47.327 105.5 105.5 105.5s105.5-47.327 105.5-105.5v-312.75c0-26.881 21.869-48.75 48.75-48.75s48.75 21.869 48.75 48.75v42.25h30v-42.25c0-43.423-35.327-78.75-78.75-78.75z" fill="#414851"/><path d="m98.5 0c-6.663 0-12.646 2.898-16.766 7.5h-5.734c-8.284 0-15 6.716-15 15s6.716 15 15 15h5.734c4.12 4.602 10.103 7.5 16.766 7.5 12.426 0 22.5-10.074 22.5-22.5s-10.074-22.5-22.5-22.5z" fill="#fffbbe"/><path d="m143.5 0c6.663 0 12.646 2.898 16.766 7.5h5.734c8.284 0 15 6.716 15 15s-6.716 15-15 15h-5.734c-4.12 4.602-10.104 7.5-16.766 7.5-12.426 0-22.5-10.074-22.5-22.5s10.074-22.5 22.5-22.5z" fill="#fef77d"/><path d="m429.5 211v75c20.711 0 37.5-16.789 37.5-37.5s-16.789-37.5-37.5-37.5z" fill="#c2c4c6"/><path d="m437 248.5c0-20.711-3.358-37.5-7.5-37.5-20.71 0-37.5 16.789-37.5 37.5s16.79 37.5 37.5 37.5c4.142 0 7.5-16.789 7.5-37.5z" fill="#e1e1e3"/><circle cx="429.5" cy="248.5" fill="#202833" r="7.5"/></g></svg>