<svg id="Layer_1" enable-background="new 0 0 504.97 504.97" height="512" viewBox="0 0 504.97 504.97" width="512" xmlns="http://www.w3.org/2000/svg"><g><g><path d="m148.357 504.97c-12.966 0-26.751-2.826-40.817-8.44-20.977-8.372-41.612-22.408-59.673-40.59-17.901-18.021-31.661-38.507-39.792-59.242-9.02-22.999-10.515-45.218-4.323-64.255 1.281-3.939 5.515-6.093 9.452-4.813 3.939 1.281 6.094 5.513 4.813 9.452-10.049 30.901 5.845 73.406 40.493 108.287 35.078 35.314 78.062 51.673 109.508 41.68 3.947-1.256 8.165.928 9.419 4.876 1.254 3.947-.929 8.165-4.876 9.419-7.619 2.421-15.737 3.626-24.204 3.626z" fill="#e0dfe1"/></g><g><path d="m494.198 177.791c-.753 0-1.518-.114-2.273-.354-3.948-1.255-6.131-5.472-4.876-9.419 9.994-31.446-6.366-74.431-41.68-109.508-34.881-34.65-77.387-50.543-108.287-40.494-3.938 1.28-8.171-.874-9.452-4.813s.874-8.17 4.813-9.452c19.038-6.191 41.256-4.696 64.255 4.323 20.735 8.131 41.22 21.892 59.242 39.792 18.183 18.062 32.219 38.696 40.59 59.673 9.279 23.25 10.943 45.734 4.813 65.02-1.013 3.194-3.965 5.232-7.145 5.232z" fill="#e0dfe1"/></g><g><path clip-rule="evenodd" d="m10.883 334.762 159.406 159.434 5.956 5.928 28.032-28.033-55.063-114.164-118.058-58.957-28.032 28.033z" fill="#d9eeff" fill-rule="evenodd"/></g><g><path clip-rule="evenodd" d="m364.857 141.025 107.234 63.252 28.033-28.032-5.928-5.956-159.434-159.406-7.759-7.759-28.033 28.032z" fill="#d9eeff" fill-rule="evenodd"/></g><g><path clip-rule="evenodd" d="m44.442 312.256 44.125 44.125 267.814-267.814-44.125-44.125c-29.207 26.401-88.794 77.999-123.871 93.834-25.055 11.31-38.77 24.997-50.109 50.109-15.835 35.077-67.433 94.664-93.834 123.871z" fill="#a1d4ff" fill-rule="evenodd"/></g><g><path clip-rule="evenodd" d="m150.76 418.574 38.255 38.255c38.828-32.127 103.827-92.688 139.476-128.338s96.21-100.648 128.337-139.476l-38.255-38.255z" fill="#a1d4ff" fill-rule="evenodd"/></g><g><path clip-rule="evenodd" d="m103.068 281.447h378.746v21.989h-378.746z" fill="#86beec" fill-rule="evenodd" transform="matrix(.707 -.707 .707 .707 -121.133 292.441)"/></g><g><path clip-rule="evenodd" d="m80.865 348.678 38.57 38.57.229.23 267.813-267.814-38.799-38.799z" fill="#a1d4ff" fill-rule="evenodd"/></g><g><path clip-rule="evenodd" d="m111.79 379.603 38.97 38.971 267.814-267.814-31.097-31.096z" fill="#a1d4ff" fill-rule="evenodd"/></g><g><path clip-rule="evenodd" d="m40.875 219.254h378.746v21.989h-378.746z" fill="#86beec" fill-rule="evenodd" transform="matrix(.707 -.707 .707 .707 -95.372 230.248)"/></g><g><path clip-rule="evenodd" d="m71.972 250.351h378.746v21.989h-378.746z" fill="#86beec" fill-rule="evenodd" transform="matrix(.707 -.707 .707 .707 -108.253 261.345)"/></g><g><path clip-rule="evenodd" d="m57.729 325.542 15.434 15.434c26.401-29.207 77.741-87.992 93.576-123.069 11.339-25.112 25.055-38.799 50.109-50.109 35.077-15.835 106.06-80.147 124.128-94.635l-15.434-15.434c-29.207 26.401-88.794 77.999-123.871 93.834-25.055 11.31-38.77 24.997-50.109 50.109-15.834 35.076-67.433 94.664-93.833 123.87z" fill="#86beec" fill-rule="evenodd"/></g><g><path clip-rule="evenodd" d="m31.156 298.97 26.572 26.572c26.401-29.207 77.999-88.794 93.834-123.871 11.339-25.112 25.055-38.799 50.109-50.109 35.077-15.835 94.664-67.433 123.871-93.834l-26.572-26.572c-38.885 38.885-76.166 68.636-113.161 85.358-19.7 8.877-32.414 18.011-41.433 27.861-9.85 9.02-18.984 21.733-27.861 41.433-16.723 36.996-46.474 74.277-85.359 113.162z" fill="#eff6ff" fill-rule="evenodd"/></g><g><path clip-rule="evenodd" d="m447.494 179.681c-32.127 38.828-92.717 103.827-128.337 139.476-35.649 35.621-100.648 96.21-139.476 128.337l24.597 24.597c49.308-39.715 96.983-81.292 142.082-125.732 44.44-45.099 86.016-92.774 125.732-142.082z" fill="#eff6ff" fill-rule="evenodd"/></g></g></svg>