<svg height="512pt" viewBox="-35 0 512 512" width="512pt" xmlns="http://www.w3.org/2000/svg"><path d="m376.496094 64.59375c-41.65625-41.652344-97.039063-64.59375-155.949219-64.59375s-114.292969 22.941406-155.949219 64.59375c-41.65625 41.65625-64.597656 97.042969-64.597656 155.953125 0 58.90625 22.941406 114.292969 64.597656 155.945313l121.117188 121.121093c9.277344 9.277344 21.648437 14.386719 34.832031 14.386719s25.554687-5.109375 34.828125-14.386719l121.121094-121.121093c41.65625-41.652344 64.59375-97.039063 64.59375-155.945313 0-58.910156-22.9375-114.296875-64.59375-155.953125zm0 0" fill="#ff5b5b"/><path d="m376.496094 64.59375c-41.65625-41.652344-97.039063-64.59375-155.949219-64.59375v512c13.183594 0 25.554687-5.109375 34.828125-14.386719l121.121094-121.121093c41.65625-41.652344 64.59375-97.039063 64.59375-155.945313 0-58.910156-22.9375-114.296875-64.59375-155.953125zm0 0" fill="#ff0059"/><path d="m220.546875 85.046875c-74.714844 0-135.5 60.78125-135.5 135.5 0 74.714844 60.785156 135.5 135.5 135.5s135.5-60.785156 135.5-135.5c0-74.71875-60.785156-135.5-135.5-135.5zm0 0" fill="#e7f0ef"/><path d="m220.546875 85.046875v271c74.714844 0 135.5-60.785156 135.5-135.5 0-74.71875-60.785156-135.5-135.5-135.5zm0 0" fill="#c5e1e6"/><path d="m292.847656 181.445312h-33.199218v-33.199218c0-8.285156-6.71875-15-15-15h-48.203126c-8.28125 0-15 6.714844-15 15v33.199218h-33.199218c-8.28125 0-15 6.714844-15 15v48.199219c0 8.285157 6.71875 15 15 15h33.199218v33.199219c0 8.285156 6.71875 15 15 15h48.203126c8.28125 0 15-6.714844 15-15v-33.199219h33.199218c8.285156 0 15-6.714843 15-15v-48.199219c0-8.285156-6.714844-15-15-15zm0 0" fill="#ff5b5b"/><path d="m292.847656 181.445312h-33.199218v-33.199218c0-8.285156-6.71875-15-15-15h-24.101563v174.597656h24.101563c8.28125 0 15-6.714844 15-15v-33.195312h33.199218c8.285156 0 15-6.71875 15-15v-48.203126c0-8.285156-6.714844-15-15-15zm0 0" fill="#ff0059"/></svg>