<svg id="Capa_1" enable-background="new 0 0 511.79 511.79" height="512" viewBox="0 0 511.79 511.79" width="512" xmlns="http://www.w3.org/2000/svg"><g><path d="m221.535 81.22-14.19 4.84-1.46.5-12.74 4.35-41.75 14.26-46.94 16.04-22.18 7.58-27.74-81.22 68.9-23.54 70.36-24.03z" fill="#39689e"/><path d="m193.795 0 27.74 81.22-14.19 4.84-1.46.5-12.74 4.35-41.75 14.26-27.96-81.14z" fill="#224370"/><path d="m387.625 338.77v173.02h-188.17l-134.26-393.02 81.32-27.78 82.41-28.15 94.26 275.93z" fill="#79d5fa"/><path d="m357.625 359.4h99.63v133.06h-99.63z" fill="#39689e"/><path d="m112.571 142.479h30v27.569h-30z" fill="#fef1f2" transform="matrix(.943 -.333 .333 .943 -44.701 51.311)"/><path d="m357.625 359.4h99.63v66.53h-99.63z" fill="#224370"/><path d="m387.625 338.77v87.16h-125.7l-115.41-334.94 82.41-28.15 94.26 275.93z" fill="#4bbbf0"/><path d="m387.625 338.77v173.02h-177.02l34.08-101.38c1.81-5.38 4.01-10.55 6.56-15.47 14.71-28.41 41.1-48.87 71.97-56.17z" fill="#fef1f2"/><path d="m387.625 338.77v87.16h-125.7l-10.68-30.99c14.71-28.41 41.1-48.87 71.97-56.17z" fill="#ebdfd9"/></g></svg>