<svg id="Layer_1" enable-background="new 0 0 512 512" height="512" viewBox="0 0 512 512" width="512" xmlns="http://www.w3.org/2000/svg"><g><g><g><g id="XMLID_1411_"><g id="XMLID_1412_"><g id="XMLID_1413_"><g id="XMLID_1414_"><g id="XMLID_1415_"><g id="XMLID_1416_"><g id="XMLID_1417_"><g id="XMLID_1418_"><g id="XMLID_1419_"><g id="XMLID_1449_"><g id="XMLID_1450_"><g id="XMLID_1451_"><g id="XMLID_1452_"><g id="XMLID_1453_"><g><path d="m512 256c0 77.25-34.22 146.51-88.33 193.45 0 0-103.54 6.217-167.67 6.217s-167.67-6.217-167.67-6.217c-54.11-46.94-88.33-116.2-88.33-193.45 0-141.38 114.62-256 256-256s256 114.62 256 256z" fill="#605553"/></g></g></g></g></g></g></g></g></g></g></g></g></g></g></g></g></g><path d="m423.67 449.45c54.11-46.94 88.33-116.2 88.33-193.45 0-.768-.022-1.531-.029-2.298l-210.163-210.163-151.647 202.776 35.453 35.071c7.842 14.365 25.424 18.985 34.22 27.447l-2.834 76.667-128.67 63.95s103.54 6.216 167.67 6.216 167.67-6.216 167.67-6.216z" fill="#4c403f"/><g><g><g><g><path d="m204.47 301.387h103.06v80.31h-103.06z" fill="#ffc48a"/></g><g><g><path d="m256 301.39h51.53v80.31h-51.53z" fill="#ffaf78"/></g></g><path d="m341.58 470.547h-171.16l34.05-103.671h103.06z" fill="#ffdaae"/><path d="m307.53 366.88 34.05 103.67h-85.58v-103.67z" fill="#ffc48a"/></g><ellipse cx="256" cy="82.41" fill="#d2ebff" rx="60.091" ry="60.091" transform="matrix(.945 -.326 .326 .945 -12.88 87.987)"/><path d="m316.09 82.41c0 .58-.01 1.16-.03 1.73-.91 32.39-27.45 58.36-60.06 58.36v-120.18c33.19 0 60.09 26.9 60.09 60.09z" fill="#9eccf2"/><g><path d="m354.472 177.215c-4.158-61.206-55.245-83.829-98.472-83.829s-94.314 22.623-98.472 83.829c-11.186 2.095-19.124 16.303-17.879 27.797l1.926 26.147c1.307 12.066 12.247 20.868 24.313 19.561l2.078-.225c24.699 64.292 63.446 80.844 88.034 84.605 24.588-3.76 63.335-20.313 88.034-84.605l2.078.225c12.065 1.307 23.006-7.496 24.313-19.561l1.926-26.147c1.245-11.494-6.693-25.701-17.879-27.797z" fill="#ffdaae"/><g><path d="m354.472 177.215c11.186 2.095 19.124 16.303 17.879 27.797l-1.926 26.147c-1.307 12.066-12.248 20.868-24.313 19.561l-2.078-.225c-24.699 64.292-63.446 80.844-88.034 84.605v-241.714c43.227 0 94.314 22.623 98.472 83.829z" fill="#ffc48a"/></g></g><path d="m256 70.667c-125.83 0-116.466 131.373-116.466 131.373 48.16 28.486 67.676-42.486 116.466-42.486s68.306 70.973 116.466 42.486c0-.001 9.364-131.373-116.466-131.373z" fill="#eef9ff"/><path d="m372.47 202.04c-48.16 28.49-67.68-42.49-116.47-42.49v-88.88c24.96 0 44.61 5.17 60.06 13.47 62.42 33.49 56.41 117.9 56.41 117.9z" fill="#d2ebff"/></g><path d="m423.67 431.23v18.22c-44.92 38.96-103.54 62.55-167.67 62.55s-122.75-23.59-167.67-62.55v-18.22c0-20.52 13.93-38.43 33.83-43.48l82.31-20.87 31.57 28.66c11.32 10.28 28.6 10.28 39.92 0l31.57-28.66 82.31 20.87c19.9 5.05 33.83 22.96 33.83 43.48z" fill="#fbbe2c"/><path d="m423.67 431.23v18.22c-44.92 38.96-103.54 62.55-167.67 62.55v-108.75c7.15 0 14.3-2.57 19.96-7.71l31.57-28.66 82.31 20.87c19.9 5.05 33.83 22.96 33.83 43.48z" fill="#fd9827"/></g></g></svg>