<svg id="Layer_3" enable-background="new 0 0 64 64" height="512" viewBox="0 0 64 64" width="512" xmlns="http://www.w3.org/2000/svg"><g><path d="m55.056 20c-1.873 0-3.585-1.058-4.422-2.733l-.634-1.267s0-.277 0-.349c-.626.222-1.298.349-2 .349s-1.374-.127-2-.349v.349l-.633 1.267c-.838 1.675-2.55 2.733-4.423 2.733-2.73 0-4.944 2.214-4.944 4.944v7.056h24v-7.056c0-2.73-2.214-4.944-4.944-4.944z" fill="#f29f8c"/><path d="m51.509 18.491c-.755.755-3.509 3.509-3.509 3.509l4 3 2.046-5.116c-.969-.203-1.852-.687-2.537-1.393z" fill="#9d958c"/><path d="m44.537 18.491c.755.755 3.509 3.509 3.509 3.509l-4 3-2.046-5.116c.97-.203 1.852-.687 2.537-1.393z" fill="#9d958c"/><path d="m48 22 3.509-3.509c-.423-.395-.608-.689-.876-1.224l-.633-1.267s0-.277 0-.349c-.626.222-1.298.349-2 .349s-1.374-.127-2-.349v.349l-.633 1.267c-.268.535-.407.829-.829 1.224z" fill="#e2b88f"/><path d="m31 24h-24c-1.105 0-2-.895-2-2v-14c0-1.105.895-2 2-2h24c1.105 0 2 .895 2 2v14c0 1.105-.895 2-2 2z" fill="#9d958c"/><path d="m7 6c-1.105 0-2 .895-2 2v12.869c.822.085 1.655.131 2.5.131 10.104 0 18.717-6.242 22.037-15z" fill="#c4bfba"/><path d="m12 32v-2c0-1.105.895-2 2-2h10c1.105 0 2 .895 2 2v2z" fill="#9d958c"/><path d="m22 28v-9c0-1.657-1.343-3-3-3-1.657 0-3 1.343-3 3v9z" fill="#625d51"/><path d="m48 16c3.314 0 6-2.686 6-6v-2c0-3.314-2.686-6-6-6-3.314 0-6 2.686-6 6v2c0 3.314 2.686 6 6 6z" fill="#e2b88f"/><path d="m48 2c-3.314 0-6 2.686-6 6v2c0 1.726.733 3.276 1.899 4.371 3.76-2.383 6.663-6.225 8.099-10.837-1.062-.951-2.46-1.534-3.998-1.534z" fill="#eed4bc"/><path d="m4 38h56v24h-56z" fill="#a97241"/><path d="m4 38v15.596c1.957.265 3.961.404 6 .404 13.868 0 26.084-6.353 33.26-16z" fill="#cbaa8d"/><path d="m20 42h24v12h-24z" fill="#d5cec2"/><path d="m39.788 42h-19.788v10.864c7.763-1.799 14.601-5.652 19.788-10.864z" fill="#f7f5f3"/><path d="m2 32h60v6h-60z" fill="#d19e6d"/><path d="m46.862 32h-44.862v6h41.26c1.4-1.883 2.611-3.889 3.602-6z" fill="#e3c5a7"/><path d="m4 58h56v4h-56z" fill="#d19e6d"/><g><path d="m6 32h-2v-2c0-1.654 1.346-3 3-3 .551 0 1-.448 1-1v-2h2v2c0 1.654-1.346 3-3 3-.551 0-1 .448-1 1z" fill="#9d958c"/></g><g><path d="m23 45h18v2h-18z" fill="#9d958c"/></g><g><path d="m23 49h18v2h-18z" fill="#9d958c"/></g></g></svg>